<svg width="122" height="122" xmlns="http://www.w3.org/2000/svg"><path d="M108.929 0H13.07C5.852 0 0 5.852 0 13.071v95.858C0 116.148 5.852 122 13.071 122h95.858c7.219 0 13.071-5.852 13.071-13.071V13.07C122 5.852 116.148 0 108.929 0zM48.505 62.662C23.81 44.74 24.06 44.694 17.43 39.532V32.68a6.536 6.536 0 0 1 6.535-6.536h74.072a6.536 6.536 0 0 1 6.535 6.536v6.853c-6.636 5.166-6.381 5.208-31.076 23.13-2.86 2.085-8.549 7.114-12.495 7.052-3.95.06-9.631-4.964-12.495-7.052zm56.066-12.071v38.73a6.536 6.536 0 0 1-6.535 6.536H23.964a6.536 6.536 0 0 1-6.535-6.536v-38.73c3.8 2.939 9.076 6.872 25.953 19.12 3.856 2.816 10.341 8.754 17.617 8.717 7.322.037 13.899-6.002 17.625-8.72C95.496 57.461 100.77 53.53 104.57 50.59z" fill="#FFF"/></svg>