<svg width="122" height="122" xmlns="http://www.w3.org/2000/svg"><path d="M108.929 0H13.07C5.855 0 0 5.855 0 13.071v95.858C0 116.145 5.855 122 13.071 122h95.858c7.216 0 13.071-5.855 13.071-13.071V13.07C122 5.855 116.145 0 108.929 0zM75.515 104.49c-2.288.408-3.132-1.008-3.132-2.179 0-1.47.055-8.986.055-15.06 0-4.247-1.417-6.943-3.078-8.36 10.076-1.116 20.697-2.505 20.697-19.906 0-4.956-1.77-7.435-4.657-10.62.463-1.172 2.015-5.992-.463-12.255-3.785-1.171-12.445 4.874-12.445 4.874-3.595-1.007-7.489-1.525-11.329-1.525-3.84 0-7.734.518-11.328 1.525 0 0-8.66-6.045-12.445-4.874-2.478 6.236-.953 11.056-.463 12.254-2.887 3.186-4.248 5.665-4.248 10.62 0 17.32 10.157 18.791 20.233 19.908-1.307 1.17-2.478 3.186-2.887 6.072-2.587 1.171-9.204 3.186-13.153-3.785-2.478-4.303-6.944-4.657-6.944-4.657-4.411-.054-.3 2.778-.3 2.778 2.942 1.362 5.011 6.59 5.011 6.59 2.642 8.088 15.278 5.365 15.278 5.365 0 3.785.054 9.94.054 11.056 0 1.171-.817 2.587-3.132 2.179C28.866 98.47 16.285 81.37 16.285 61.38c0-24.999 19.117-43.98 44.116-43.98s45.26 18.981 45.26 43.98c.027 19.989-12.173 37.118-30.146 43.109zM48.8 87.85c-.517.11-1.008-.108-1.062-.462-.055-.409.3-.763.817-.871.517-.055 1.008.163 1.062.517.082.354-.272.708-.817.817zm-2.587-.244c0 .354-.409.653-.953.653-.6.055-1.008-.245-1.008-.653 0-.354.409-.654.953-.654.518-.054 1.008.245 1.008.654zm-3.73-.3c-.11.354-.654.518-1.117.354-.518-.109-.872-.517-.763-.871.11-.354.654-.518 1.117-.409.544.164.898.572.762.926zm-3.35-1.47c-.245.3-.763.245-1.171-.164-.409-.354-.518-.871-.245-1.116.245-.3.762-.245 1.17.163.355.354.49.899.246 1.117zm-2.479-2.478c-.245.163-.708 0-1.007-.409-.3-.408-.3-.871 0-1.062.3-.245.762-.054 1.007.354.3.409.3.899 0 1.117zm-1.77-2.642c-.245.245-.653.109-.953-.163-.3-.354-.354-.763-.109-.953.245-.246.654-.11.953.163.3.354.354.762.11.953zm-1.824-2.015c-.11.245-.463.3-.763.109-.354-.164-.517-.463-.408-.708.109-.164.408-.245.762-.11.354.191.518.491.409.709z" fill="#FFF"/></svg>