<svg width="125" height="117" viewBox="0 0 125 117" fill="none" xmlns="http://www.w3.org/2000/svg">
<path d="M62.4986 46.8662C55.647 46.8662 50.068 52.0856 50.068 58.4987C50.068 64.9144 55.647 70.1363 62.4986 70.1363C69.353 70.1363 74.9292 64.9144 74.9292 58.4987C74.9292 52.0856 69.353 46.8662 62.4986 46.8662ZM62.4986 46.8662C55.647 46.8662 50.068 52.0856 50.068 58.4987C50.068 64.9144 55.647 70.1363 62.4986 70.1363C69.353 70.1363 74.9292 64.9144 74.9292 58.4987C74.9292 52.0856 69.353 46.8662 62.4986 46.8662ZM83.2072 27.8964H41.7928C35.1826 27.8964 29.8038 32.9309 29.8038 39.1181V77.8819C29.8038 84.0691 35.1826 89.1036 41.7928 89.1036H83.2072C89.8174 89.1036 95.1962 84.0691 95.1962 77.8819V39.1181C95.1962 32.9309 89.8174 27.8964 83.2072 27.8964ZM62.4986 78.6495C50.6303 78.6495 40.9727 69.61 40.9727 58.4987C40.9727 47.39 50.6303 38.3505 62.4986 38.3505C74.3697 38.3505 84.0273 47.39 84.0273 58.4987C84.0273 69.61 74.3697 78.6495 62.4986 78.6495ZM84.7185 42.5172C81.9098 42.5172 79.625 40.3786 79.625 37.7497C79.625 35.1208 81.9098 32.9822 84.7185 32.9822C87.5271 32.9822 89.8119 35.1208 89.8119 37.7497C89.8119 40.3786 87.5271 42.5172 84.7185 42.5172ZM62.4986 46.8662C55.647 46.8662 50.068 52.0856 50.068 58.4987C50.068 64.9144 55.647 70.1363 62.4986 70.1363C69.353 70.1363 74.9292 64.9144 74.9292 58.4987C74.9292 52.0856 69.353 46.8662 62.4986 46.8662ZM83.2072 27.8964H41.7928C35.1826 27.8964 29.8038 32.9309 29.8038 39.1181V77.8819C29.8038 84.0691 35.1826 89.1036 41.7928 89.1036H83.2072C89.8174 89.1036 95.1962 84.0691 95.1962 77.8819V39.1181C95.1962 32.9309 89.8174 27.8964 83.2072 27.8964ZM62.4986 78.6495C50.6303 78.6495 40.9727 69.61 40.9727 58.4987C40.9727 47.39 50.6303 38.3505 62.4986 38.3505C74.3697 38.3505 84.0273 47.39 84.0273 58.4987C84.0273 69.61 74.3697 78.6495 62.4986 78.6495ZM84.7185 42.5172C81.9098 42.5172 79.625 40.3786 79.625 37.7497C79.625 35.1208 81.9098 32.9822 84.7185 32.9822C87.5271 32.9822 89.8119 35.1208 89.8119 37.7497C89.8119 40.3786 87.5271 42.5172 84.7185 42.5172ZM62.4986 46.8662C55.647 46.8662 50.068 52.0856 50.068 58.4987C50.068 64.9144 55.647 70.1363 62.4986 70.1363C69.353 70.1363 74.9292 64.9144 74.9292 58.4987C74.9292 52.0856 69.353 46.8662 62.4986 46.8662ZM10 0C4.47715 0 0 4.47715 0 10V107C0 112.523 4.47715 117 10 117H115C120.523 117 125 112.523 125 107V10C125 4.47715 120.523 0 115 0H10ZM104.291 77.8819C104.291 88.7647 94.8341 97.6168 83.2072 97.6168H41.7928C30.1659 97.6168 20.7085 88.7647 20.7085 77.8819V39.1181C20.7085 28.2353 30.1659 19.3832 41.7928 19.3832H83.2072C94.8341 19.3832 104.291 28.2353 104.291 39.1181V77.8819ZM83.2072 27.8964H41.7928C35.1826 27.8964 29.8038 32.9309 29.8038 39.1181V77.8819C29.8038 84.0691 35.1826 89.1036 41.7928 89.1036H83.2072C89.8174 89.1036 95.1962 84.0691 95.1962 77.8819V39.1181C95.1962 32.9309 89.8174 27.8964 83.2072 27.8964ZM62.4986 78.6495C50.6303 78.6495 40.9727 69.61 40.9727 58.4987C40.9727 47.39 50.6303 38.3505 62.4986 38.3505C74.3697 38.3505 84.0273 47.39 84.0273 58.4987C84.0273 69.61 74.3697 78.6495 62.4986 78.6495ZM84.7185 42.5172C81.9098 42.5172 79.625 40.3786 79.625 37.7497C79.625 35.1208 81.9098 32.9822 84.7185 32.9822C87.5271 32.9822 89.8119 35.1208 89.8119 37.7497C89.8119 40.3786 87.5271 42.5172 84.7185 42.5172ZM62.4986 46.8662C55.647 46.8662 50.068 52.0856 50.068 58.4987C50.068 64.9144 55.647 70.1363 62.4986 70.1363C69.353 70.1363 74.9292 64.9144 74.9292 58.4987C74.9292 52.0856 69.353 46.8662 62.4986 46.8662ZM62.4986 46.8662C55.647 46.8662 50.068 52.0856 50.068 58.4987C50.068 64.9144 55.647 70.1363 62.4986 70.1363C69.353 70.1363 74.9292 64.9144 74.9292 58.4987C74.9292 52.0856 69.353 46.8662 62.4986 46.8662ZM62.4986 46.8662C55.647 46.8662 50.068 52.0856 50.068 58.4987C50.068 64.9144 55.647 70.1363 62.4986 70.1363C69.353 70.1363 74.9292 64.9144 74.9292 58.4987C74.9292 52.0856 69.353 46.8662 62.4986 46.8662ZM83.2072 27.8964H41.7928C35.1826 27.8964 29.8038 32.9309 29.8038 39.1181V77.8819C29.8038 84.0691 35.1826 89.1036 41.7928 89.1036H83.2072C89.8174 89.1036 95.1962 84.0691 95.1962 77.8819V39.1181C95.1962 32.9309 89.8174 27.8964 83.2072 27.8964ZM62.4986 78.6495C50.6303 78.6495 40.9727 69.61 40.9727 58.4987C40.9727 47.39 50.6303 38.3505 62.4986 38.3505C74.3697 38.3505 84.0273 47.39 84.0273 58.4987C84.0273 69.61 74.3697 78.6495 62.4986 78.6495ZM84.7185 42.5172C81.9098 42.5172 79.625 40.3786 79.625 37.7497C79.625 35.1208 81.9098 32.9822 84.7185 32.9822C87.5271 32.9822 89.8119 35.1208 89.8119 37.7497C89.8119 40.3786 87.5271 42.5172 84.7185 42.5172ZM62.4986 46.8662C55.647 46.8662 50.068 52.0856 50.068 58.4987C50.068 64.9144 55.647 70.1363 62.4986 70.1363C69.353 70.1363 74.9292 64.9144 74.9292 58.4987C74.9292 52.0856 69.353 46.8662 62.4986 46.8662ZM62.4986 46.8662C55.647 46.8662 50.068 52.0856 50.068 58.4987C50.068 64.9144 55.647 70.1363 62.4986 70.1363C69.353 70.1363 74.9292 64.9144 74.9292 58.4987C74.9292 52.0856 69.353 46.8662 62.4986 46.8662ZM62.4986 46.8662C55.647 46.8662 50.068 52.0856 50.068 58.4987C50.068 64.9144 55.647 70.1363 62.4986 70.1363C69.353 70.1363 74.9292 64.9144 74.9292 58.4987C74.9292 52.0856 69.353 46.8662 62.4986 46.8662ZM83.2072 27.8964H41.7928C35.1826 27.8964 29.8038 32.9309 29.8038 39.1181V77.8819C29.8038 84.0691 35.1826 89.1036 41.7928 89.1036H83.2072C89.8174 89.1036 95.1962 84.0691 95.1962 77.8819V39.1181C95.1962 32.9309 89.8174 27.8964 83.2072 27.8964ZM62.4986 78.6495C50.6303 78.6495 40.9727 69.61 40.9727 58.4987C40.9727 47.39 50.6303 38.3505 62.4986 38.3505C74.3697 38.3505 84.0273 47.39 84.0273 58.4987C84.0273 69.61 74.3697 78.6495 62.4986 78.6495ZM84.7185 42.5172C81.9098 42.5172 79.625 40.3786 79.625 37.7497C79.625 35.1208 81.9098 32.9822 84.7185 32.9822C87.5271 32.9822 89.8119 35.1208 89.8119 37.7497C89.8119 40.3786 87.5271 42.5172 84.7185 42.5172ZM62.4986 46.8662C55.647 46.8662 50.068 52.0856 50.068 58.4987C50.068 64.9144 55.647 70.1363 62.4986 70.1363C69.353 70.1363 74.9292 64.9144 74.9292 58.4987C74.9292 52.0856 69.353 46.8662 62.4986 46.8662Z" fill="white"/>
</svg>
