<svg width="122" height="122" xmlns="http://www.w3.org/2000/svg"><path d="M113.286 0H8.687C3.894 0 0 3.949 0 8.796v104.408C0 118.051 3.894 122 8.687 122h104.599c4.793 0 8.714-3.949 8.714-8.796V8.796C122 3.949 118.079 0 113.286 0zM36.872 104.571H18.79V46.35H36.9v58.222h-.028zm-9.04-66.174c-5.801 0-10.485-4.71-10.485-10.484 0-5.773 4.684-10.484 10.484-10.484 5.773 0 10.485 4.71 10.485 10.484 0 5.8-4.684 10.484-10.485 10.484zm76.821 66.174H86.571V76.25c0-6.754-.136-15.44-9.395-15.44-9.422 0-10.866 7.352-10.866 14.95v28.811H48.228V46.35h17.347v7.952h.245c2.424-4.575 8.333-9.395 17.13-9.395 18.3 0 21.703 12.064 21.703 27.75v31.915z" fill="#FFF"/></svg>